<svg width="19" height="19" viewBox="0 0 19 19" fill="none" xmlns="http://www.w3.org/2000/svg">
<path d="M12.3097 7.37343L7.37352 12.3096C7.25559 12.4235 7.09763 12.4865 6.93368 12.4851C6.76972 12.4836 6.61289 12.4179 6.49695 12.302C6.38101 12.186 6.31525 12.0292 6.31382 11.8652C6.3124 11.7013 6.37543 11.5433 6.48933 11.4254L11.4255 6.48925C11.5435 6.37534 11.7014 6.31231 11.8654 6.31374C12.0293 6.31516 12.1862 6.38093 12.3021 6.49686C12.4181 6.6128 12.4838 6.76963 12.4852 6.93359C12.4867 7.09754 12.4236 7.25549 12.3097 7.37343ZM7.67868 7.67857C7.81504 7.54237 7.90795 7.36879 7.94564 7.17977C7.98332 6.99076 7.9641 6.79481 7.8904 6.61673C7.8167 6.43864 7.69183 6.28642 7.53159 6.17932C7.37135 6.07222 7.18294 6.01505 6.99021 6.01505C6.79747 6.01505 6.60907 6.07222 6.44883 6.17932C6.28859 6.28642 6.16372 6.43864 6.09002 6.61673C6.01631 6.79481 5.99709 6.99076 6.03478 7.17977C6.07247 7.36879 6.16537 7.54237 6.30174 7.67857C6.48441 7.86102 6.73203 7.9635 6.99021 7.9635C7.24838 7.9635 7.49601 7.86102 7.67868 7.67857ZM11.1204 11.119C10.984 11.2552 10.8911 11.4288 10.8534 11.6178C10.8157 11.8068 10.835 12.0027 10.9087 12.1808C10.9824 12.3589 11.1072 12.5111 11.2675 12.6182C11.4277 12.7253 11.6161 12.7825 11.8089 12.7825C12.0016 12.7825 12.19 12.7253 12.3502 12.6182C12.5105 12.5111 12.6353 12.3589 12.7091 12.1808C12.7828 12.0027 12.802 11.8068 12.7643 11.6178C12.7266 11.4288 12.6337 11.2552 12.4973 11.119C12.3147 10.9365 12.067 10.8341 11.8089 10.8341C11.5507 10.8341 11.3031 10.9365 11.1204 11.119ZM18.3753 10.8188C18.3256 11.1482 18.1881 11.4582 17.9773 11.7161C17.7665 11.974 17.4901 12.1704 17.1772 12.2846L15.9553 12.7398L16.3055 13.9954C16.3945 14.3155 16.3969 14.6536 16.3124 14.9749C16.2279 15.2963 16.0596 15.5894 15.8246 15.8244C15.5896 16.0593 15.2965 16.2277 14.9751 16.3122C14.6538 16.3966 14.3157 16.3943 13.9956 16.3053L12.74 15.9551L12.286 17.1769C12.1719 17.4897 11.9757 17.766 11.718 17.9768C11.4603 18.1876 11.1507 18.3251 10.8215 18.375C10.7214 18.3911 10.6202 18.3995 10.5188 18.4C10.2368 18.4004 9.95836 18.3363 9.70479 18.2128C9.45122 18.0893 9.22919 17.9095 9.05561 17.6872L8.24771 16.6654L7.16467 17.3858C6.88756 17.5703 6.56634 17.6777 6.234 17.697C5.90166 17.7164 5.57015 17.6469 5.27352 17.4958C4.97689 17.3447 4.72582 17.1173 4.54607 16.8371C4.36633 16.5569 4.26439 16.2339 4.25072 15.9013L4.19819 14.6007L2.89754 14.5482C2.56492 14.5345 2.24192 14.4325 1.96171 14.2528C1.6815 14.0731 1.45417 13.822 1.30305 13.5254C1.15193 13.2287 1.08248 12.8972 1.10181 12.5649C1.12114 12.2326 1.22856 11.9113 1.41305 11.6342L2.13341 10.5512L1.11165 9.74207C0.850775 9.53558 0.649515 9.26341 0.528504 8.95349C0.407493 8.64357 0.371086 8.30704 0.423016 7.97841C0.474946 7.64978 0.613344 7.34088 0.82402 7.08336C1.0347 6.82586 1.31007 6.62901 1.6219 6.51301L2.84376 6.05904L2.49359 4.80343C2.4043 4.48321 2.4017 4.14502 2.48607 3.82347C2.57043 3.50193 2.73874 3.20857 2.97374 2.97344C3.20874 2.73831 3.50201 2.56986 3.82352 2.48532C4.14503 2.40078 4.48322 2.40319 4.80349 2.49231L6.05912 2.84248L6.51309 1.62189C6.6291 1.31006 6.82595 1.03469 7.08346 0.824014C7.34097 0.613341 7.64989 0.474945 7.97852 0.423015C8.30715 0.371086 8.64369 0.407493 8.95361 0.528502C9.26354 0.649511 9.53571 0.850769 9.74221 1.11164L10.5514 2.13338L11.6344 1.41304C11.9115 1.22855 12.2327 1.12113 12.5651 1.1018C12.8974 1.08247 13.2289 1.15192 13.5255 1.30304C13.8222 1.45415 14.0733 1.68148 14.253 1.96169C14.4327 2.24189 14.5347 2.56488 14.5484 2.89751L14.6009 4.19814L15.9015 4.25066C16.2342 4.26433 16.5571 4.36627 16.8374 4.54601C17.1176 4.72576 17.3449 4.97683 17.496 5.27345C17.6471 5.57008 17.7166 5.90158 17.6973 6.23392C17.6779 6.56626 17.5705 6.88747 17.386 7.16457L16.6657 8.24635L17.6874 9.05549C17.9498 9.26058 18.1522 9.53254 18.2732 9.84282C18.3943 10.1531 18.4295 10.4902 18.3753 10.8188ZM16.912 10.0372L15.4375 8.8704C15.3145 8.77302 15.2326 8.63293 15.208 8.47794C15.1835 8.32295 15.2181 8.1644 15.305 8.03375L16.3443 6.47174C16.4058 6.37942 16.4417 6.27238 16.4483 6.16161C16.4548 6.05084 16.4317 5.94032 16.3815 5.8414C16.3312 5.74248 16.2555 5.65873 16.1621 5.59874C16.0688 5.53874 15.9611 5.50467 15.8503 5.50002L13.9743 5.42373C13.8173 5.41725 13.6685 5.35189 13.5575 5.24065C13.4465 5.12942 13.3814 4.98047 13.3753 4.82344L13.2977 2.94753C13.2929 2.83677 13.2586 2.72929 13.1986 2.63611C13.1385 2.54293 13.0547 2.46741 12.9558 2.41726C12.8569 2.36712 12.7465 2.34417 12.6358 2.35077C12.5252 2.35736 12.4182 2.39326 12.326 2.45479L10.7652 3.49279C10.6347 3.5805 10.4759 3.6157 10.3205 3.59135C10.1652 3.56701 10.0247 3.48491 9.9273 3.36148L8.76172 1.88827C8.69284 1.80152 8.60217 1.73463 8.49896 1.69442C8.39575 1.65422 8.28372 1.64215 8.17431 1.65945C8.06491 1.67675 7.96207 1.7228 7.8763 1.79289C7.79054 1.86298 7.72492 1.95459 7.68618 2.05835L7.03085 3.81795C6.97686 3.96535 6.8691 4.08685 6.72922 4.15807C6.58933 4.22929 6.42768 4.24494 6.27673 4.20189L4.46832 3.69664C4.36146 3.66656 4.24852 3.66547 4.14109 3.69348C4.03367 3.72149 3.93564 3.7776 3.85708 3.85604C3.77851 3.93447 3.72225 4.03241 3.69406 4.13979C3.66587 4.24716 3.66678 4.36011 3.69669 4.46702L4.20194 6.27664C4.24409 6.42759 4.22802 6.58885 4.15692 6.72851C4.08581 6.86817 3.96486 6.97604 3.818 7.03076L2.05837 7.68608C1.95461 7.72482 1.863 7.79043 1.79291 7.8762C1.72282 7.96196 1.67677 8.0648 1.65947 8.1742C1.64217 8.28361 1.65424 8.39564 1.69444 8.49885C1.73464 8.60205 1.80154 8.69273 1.88829 8.7616L3.36152 9.92841C3.48457 10.0258 3.5665 10.1659 3.59106 10.3209C3.61562 10.4759 3.581 10.6344 3.49409 10.7651L2.45482 12.3271C2.39357 12.4194 2.35794 12.5263 2.35157 12.6369C2.3452 12.7475 2.36832 12.8578 2.41857 12.9565C2.46883 13.0552 2.5444 13.1388 2.63757 13.1987C2.73073 13.2587 2.83814 13.2928 2.94882 13.2975L4.82475 13.3751C4.98156 13.3815 5.13021 13.4467 5.24118 13.5577C5.35216 13.6687 5.41734 13.8173 5.4238 13.9741L5.50134 15.85C5.50599 15.9609 5.54007 16.0685 5.60006 16.1619C5.66005 16.2552 5.74381 16.3309 5.84273 16.3812C5.94165 16.4315 6.05217 16.4546 6.16294 16.448C6.27372 16.4415 6.38076 16.4056 6.47307 16.344L8.03385 15.306C8.16446 15.2186 8.32321 15.1836 8.47848 15.2079C8.63375 15.2322 8.77417 15.3142 8.87177 15.4373L10.0374 16.9106C10.1062 16.9973 10.1969 17.0642 10.3001 17.1044C10.4033 17.1446 10.5154 17.1567 10.6248 17.1394C10.7342 17.1221 10.837 17.076 10.9228 17.0059C11.0085 16.9358 11.0741 16.8442 11.1129 16.7405L11.7682 14.9809C11.8229 14.834 11.9308 14.7131 12.0705 14.642C12.2101 14.5709 12.3714 14.5548 12.5223 14.5969L14.3307 15.1009C14.4377 15.1314 14.5508 15.1326 14.6584 15.1044C14.766 15.0763 14.864 15.0198 14.9423 14.9408C15.0217 14.8631 15.0785 14.7653 15.1067 14.6578C15.1349 14.5504 15.1334 14.4372 15.1024 14.3305L14.5971 12.5209C14.555 12.37 14.5711 12.2087 14.6422 12.0691C14.7133 11.9294 14.8342 11.8215 14.9811 11.7668L16.7407 11.1127C16.8445 11.074 16.9361 11.0084 17.0062 10.9226C17.0763 10.8369 17.1223 10.734 17.1396 10.6246C17.1569 10.5152 17.1448 10.4032 17.1046 10.3C17.0644 10.1968 16.9988 10.1061 16.912 10.0372Z" fill="#9A5632" stroke="#9A5632" stroke-width="0.8"/>
</svg>
